<?xml version="1.0" encoding="UTF-8"?>
<svg id="Layer_1" data-name="Layer 1" xmlns="http://www.w3.org/2000/svg" viewBox="0 0 544.22 544.22">
  <path fill="#c04444" d="m272.11,0C2.1,0,0,121.83,0,272.11s2.1,272.11,272.11,272.11,272.11-121.83,272.11-272.11S542.12,0,272.11,0Z"/>
  <g>
    <path fill="#fff" d="m264.62,290.64c19.31.05,45.74-1.01,71.97-4.84,7.47-1.09,14.84-2.91,22.19-4.65,2.58-.61,5.12-1.76,7.44-3.07,4.24-2.4,4.21-5.01.17-7.81-4.42-3.06-4.66-5.12-.99-8.87,2.87-2.94,5.83-5.8,8.68-8.76,1.88-1.95,3.89-2.75,6.56-1.66,5.1,2.08,10.35,3.8,15.35,6.08,6.62,3.02,10.33,7.58,10.67,15.7,1.32,30.93-3.46,60.46-18.58,87.75-18.3,33.02-45.95,55.06-81.87,65.96-41.29,12.53-82.33,10.25-122-6.64-36.1-15.37-58.39-43.35-69.34-80.7-6.62-22.59-7.75-45.72-6.81-69.07.22-5.44,2.96-9.3,7.47-11.23,9.15-3.92,18.38-8.03,27.98-10.45,26.61-6.73,53.87-9.04,81.23-10.27,1.32-.06,2.66.41,3.98.64-.46,1.37-.67,2.91-1.43,4.09-2.65,4.1-5.59,8-8.22,12.11-1.66,2.6-3.72,3.68-6.86,4.06-17.31,2.05-34.61,4.27-51.86,6.77-3.85.56-7.64,2.21-11.19,3.92-1.73.84-3.97,3.02-3.91,4.52.05,1.56,2.33,3.87,4.08,4.42,7.8,2.44,15.66,5,23.7,6.36,27.94,4.72,56.18,5.67,91.62,5.67Z"/>
    <path fill="#fff" d="m235.84,268.76c1.27-1.93,1.89-3.12,2.74-4.13,42.5-50.69,85.01-101.38,127.53-152.05,3-3.57,4.89-3.67,8.27-.41,3.79,3.65,7.54,7.36,11.27,11.07,3.45,3.44,3.53,4.74.29,8.41-22.27,25.23-44.56,50.44-66.85,75.66-17.18,19.44-34.4,38.85-51.5,58.37-2.13,2.44-4.35,3.62-7.6,3.53-6.29-.17-12.59-.03-18.88-.07-1.39,0-2.77-.2-5.27-.39Z"/>
    <path fill="#fff" d="m309.87,269.51c-3.72,0-7.45.07-11.17-.05-1.05-.03-2.08-.61-3.12-.94.48-.98.77-2.14,1.48-2.91,7.72-8.42,15.51-16.79,23.29-25.17,31.11-33.51,62.21-67.01,93.32-100.52,4.74-5.11,5.55-5.13,10.45-.27,3.37,3.35,6.78,6.66,10.1,10.06,2.95,3.02,2.99,4.95.1,7.89-35.96,36.51-71.91,73.03-107.98,109.43-1.42,1.43-3.97,2.14-6.08,2.38-3.42.39-6.92.1-10.39.1Z"/>
  </g>
</svg>