<?xml version="1.0" encoding="utf-8"?>
<!-- Generator: Adobe Illustrator 27.1.1, SVG Export Plug-In . SVG Version: 6.00 Build 0)  -->
<svg version="1.1" id="Layer_1" xmlns="http://www.w3.org/2000/svg" xmlns:xlink="http://www.w3.org/1999/xlink" x="0px" y="0px"
	 viewBox="0 0 328.7 324.6" style="enable-background:new 0 0 328.7 324.6;" xml:space="preserve">
<g>
	<path d="M156.8,180.8c19.3,0,45.7-1,72-4.8c7.5-1.1,14.8-2.9,22.2-4.6c2.6-0.6,5.1-1.8,7.4-3.1c4.2-2.4,4.2-5,0.2-7.8
		c-4.4-3.1-4.7-5.1-1-8.9c2.9-2.9,5.8-5.8,8.7-8.8c1.9-1.9,3.9-2.8,6.6-1.7c5.1,2.1,10.4,3.8,15.4,6.1c6.6,3,10.3,7.6,10.7,15.7
		c1.3,30.9-3.5,60.5-18.6,87.8c-18.3,33-46,55.1-81.9,66c-41.3,12.5-82.3,10.2-122-6.6C40.3,294.6,18,266.7,7.1,229.3
		c-6.6-22.6-7.8-45.7-6.8-69.1c0.2-5.4,3-9.3,7.5-11.2c9.2-3.9,18.4-8,28-10.4c26.6-6.7,53.9-9,81.2-10.3c1.3-0.1,2.7,0.4,4,0.6
		c-0.5,1.4-0.7,2.9-1.4,4.1c-2.6,4.1-5.6,8-8.2,12.1c-1.7,2.6-3.7,3.7-6.9,4.1c-17.3,2-34.6,4.3-51.9,6.8c-3.9,0.6-7.6,2.2-11.2,3.9
		c-1.7,0.8-4,3-3.9,4.5c0.1,1.6,2.3,3.9,4.1,4.4c7.8,2.4,15.7,5,23.7,6.4C93.2,179.9,121.4,180.9,156.8,180.8L156.8,180.8z"/>
	<path d="M128.1,158.9c1.3-1.9,1.9-3.1,2.7-4.1c42.5-50.7,85-101.4,127.5-152.1c3-3.6,4.9-3.7,8.3-0.4c3.8,3.7,7.5,7.4,11.3,11.1
		c3.5,3.4,3.5,4.7,0.3,8.4c-22.3,25.2-44.6,50.4-66.9,75.7c-17.2,19.4-34.4,38.9-51.5,58.4c-2.1,2.4-4.4,3.6-7.6,3.5
		c-6.3-0.2-12.6,0-18.9-0.1C131.9,159.3,130.6,159.1,128.1,158.9L128.1,158.9z"/>
	<path d="M202.1,159.7c-3.7,0-7.5,0.1-11.2,0c-1,0-2.1-0.6-3.1-0.9c0.5-1,0.8-2.1,1.5-2.9c7.7-8.4,15.5-16.8,23.3-25.2
		c31.1-33.5,62.2-67,93.3-100.5c4.7-5.1,5.5-5.1,10.5-0.3c3.4,3.4,6.8,6.7,10.1,10.1c3,3,3,4.9,0.1,7.9c-36,36.5-71.9,73-108,109.4
		c-1.4,1.4-4,2.1-6.1,2.4C209.1,160,205.6,159.7,202.1,159.7L202.1,159.7z"/>
</g>
</svg>
